<svg xmlns="http://www.w3.org/2000/svg" width="856" height="300" viewBox="0 0 226.483 79.375"><path d="m270.933 66.661-12.958-22.445H12.959L0 66.66l122.508 212.19h25.917l48.554-84.098-25.916-14.963-35.595 61.653-96.59-167.3h193.18l-35.595 61.653 25.916 14.963z" style="color:#000;font-style:normal;font-variant:normal;font-weight:400;font-stretch:normal;font-size:medium;line-height:normal;font-family:sans-serif;font-variant-ligatures:normal;font-variant-position:normal;font-variant-caps:normal;font-variant-numeric:normal;font-variant-alternates:normal;font-feature-settings:normal;text-indent:0;text-align:start;text-decoration:none;text-decoration-line:none;text-decoration-style:solid;text-decoration-color:#000;letter-spacing:normal;word-spacing:normal;text-transform:none;writing-mode:lr-tb;direction:ltr;text-orientation:mixed;dominant-baseline:auto;baseline-shift:baseline;text-anchor:start;white-space:normal;shape-padding:0;clip-rule:nonzero;display:inline;overflow:visible;visibility:visible;opacity:1;isolation:auto;mix-blend-mode:normal;color-interpolation:sRGB;color-interpolation-filters:linearRGB;solid-color:#000;solid-opacity:1;vector-effect:none;fill:#ccc;fill-opacity:1;fill-rule:nonzero;stroke:none;stroke-width:29.92770576;stroke-linecap:butt;stroke-linejoin:bevel;stroke-miterlimit:4;stroke-dasharray:none;stroke-dashoffset:0;stroke-opacity:1;paint-order:normal;color-rendering:auto;image-rendering:auto;shape-rendering:auto;text-rendering:auto;enable-background:accumulate" transform="translate(6.085 -.346) scale(.24414)"/><g aria-label="Faltro" style="font-style:normal;font-weight:400;font-size:10.58333302px;line-height:1.25;font-family:sans-serif;letter-spacing:0;word-spacing:0;fill:#ccc;fill-opacity:1;stroke:none;stroke-width:.26458332"><path d="M100.912 244.824v-6.096H74.877v44.514h5.97v-18.86h16.128v-5.651H80.846v-13.907zM126.348 251.428v3.874a14.676 14.676 0 0 0-9.652-3.556c-8.382 0-15.24 7.048-15.24 15.684 0 8.827 6.858 15.812 15.24 15.812 3.746 0 7.048-1.334 9.652-3.556v3.556h5.778v-31.814zm-9.652 26.035c-5.334 0-9.716-4.508-9.716-10.033 0-5.397 4.382-9.906 9.716-9.906 4.89 0 8.953 3.747 9.652 8.636v2.667c-.699 4.89-4.763 8.636-9.652 8.636zM142.58 235.68h-5.842v47.562h5.842zM161.492 251.428v-15.811h-5.905v15.811h-8.636v6.033h8.636v25.78h5.905v-25.78h8.319v-6.033zM179.775 251.428h-5.715v31.814h5.715v-15.939c.508-5.397 4.318-9.97 9.843-9.97v-5.587c-3.81 0-7.112 1.397-9.843 3.62zM206.129 251.555c-8.51 0-15.43 7.049-15.43 15.812 0 8.826 6.92 15.811 15.43 15.811 8.445 0 15.367-6.985 15.367-15.811 0-8.763-6.922-15.812-15.367-15.812zm0 25.845c-5.461 0-9.843-4.509-9.843-10.033 0-5.525 4.382-10.033 9.843-10.033 5.397 0 9.779 4.508 9.779 10.033 0 5.524-4.382 10.033-9.78 10.033z" style="font-style:normal;font-variant:normal;font-weight:400;font-stretch:normal;font-size:63.5px;font-family:'Ikaros Sans';-inkscape-font-specification:'Ikaros Sans, Normal';font-variant-ligatures:normal;font-variant-caps:normal;font-variant-numeric:normal;font-feature-settings:normal;text-align:start;writing-mode:lr-tb;text-anchor:start;stroke-width:.26458332" transform="translate(0 -217.625)"/></g></svg>