<?xml version="1.0" encoding="UTF-8" standalone="no"?>
<!-- Created with Inkscape (http://www.inkscape.org/) -->

<svg
   xmlns:dc="http://purl.org/dc/elements/1.1/"
   xmlns:cc="http://creativecommons.org/ns#"
   xmlns:rdf="http://www.w3.org/1999/02/22-rdf-syntax-ns#"
   xmlns:svg="http://www.w3.org/2000/svg"
   xmlns="http://www.w3.org/2000/svg"
   xmlns:sodipodi="http://sodipodi.sourceforge.net/DTD/sodipodi-0.dtd"
   xmlns:inkscape="http://www.inkscape.org/namespaces/inkscape"
   width="856"
   height="300"
   viewBox="0 0 226.48333 79.375002"
   version="1.1"
   id="svg8"
   inkscape:version="0.92.4 5da689c313, 2019-01-14"
   sodipodi:docname="faltro_heading.svg">
  <defs
     id="defs2" />
  <sodipodi:namedview
     id="base"
     pagecolor="#ffffff"
     bordercolor="#666666"
     borderopacity="1.0"
     inkscape:pageopacity="0.0"
     inkscape:pageshadow="2"
     inkscape:zoom="1.979899"
     inkscape:cx="415.75183"
     inkscape:cy="120.15074"
     inkscape:document-units="mm"
     inkscape:current-layer="text4618"
     showgrid="false"
     units="px"
     inkscape:window-width="2538"
     inkscape:window-height="1392"
     inkscape:window-x="10"
     inkscape:window-y="36"
     inkscape:window-maximized="0" />
  <metadata
     id="metadata5">
    <rdf:RDF>
      <cc:Work
         rdf:about="">
        <dc:format>image/svg+xml</dc:format>
        <dc:type
           rdf:resource="http://purl.org/dc/dcmitype/StillImage" />
        <dc:title></dc:title>
      </cc:Work>
    </rdf:RDF>
  </metadata>
  <g
     inkscape:label="Layer 1"
     inkscape:groupmode="layer"
     id="layer1"
     transform="translate(0,-217.62498)">
    <g
       id="g4602"
       transform="matrix(0.24414063,0,0,0.24414063,6.0854163,223.64337)">
      <g
         transform="translate(0,-26.066725)"
         id="layer1-6"
         inkscape:label="Layer 1">
        <path
           inkscape:connector-curvature="0"
           id="path4531"
           d="M 270.93333,66.661011 257.97471,44.215675 12.958917,44.215697 1.4166684e-6,66.661201 122.50788,278.85111 l 25.91755,-1.7e-4 48.55393,-84.09789 -25.9161,-14.96267 -35.59503,61.6524 -96.59017,-167.29899 193.18026,5e-5 -35.59503,61.6524 25.91611,14.96267 z"
           style="color:#000000;font-style:normal;font-variant:normal;font-weight:normal;font-stretch:normal;font-size:medium;line-height:normal;font-family:sans-serif;font-variant-ligatures:normal;font-variant-position:normal;font-variant-caps:normal;font-variant-numeric:normal;font-variant-alternates:normal;font-feature-settings:normal;text-indent:0;text-align:start;text-decoration:none;text-decoration-line:none;text-decoration-style:solid;text-decoration-color:#000000;letter-spacing:normal;word-spacing:normal;text-transform:none;writing-mode:lr-tb;direction:ltr;text-orientation:mixed;dominant-baseline:auto;baseline-shift:baseline;text-anchor:start;white-space:normal;shape-padding:0;clip-rule:nonzero;display:inline;overflow:visible;visibility:visible;opacity:1;isolation:auto;mix-blend-mode:normal;color-interpolation:sRGB;color-interpolation-filters:linearRGB;solid-color:#000000;solid-opacity:1;vector-effect:none;fill:#ccc;fill-opacity:1;fill-rule:nonzero;stroke:none;stroke-width:29.92770576;stroke-linecap:butt;stroke-linejoin:bevel;stroke-miterlimit:4;stroke-dasharray:none;stroke-dashoffset:0;stroke-opacity:1;paint-order:normal;color-rendering:auto;image-rendering:auto;shape-rendering:auto;text-rendering:auto;enable-background:accumulate" />
      </g>
      <g
         inkscape:label="Layer 2"
         id="layer2" />
    </g>
    <flowRoot
       xml:space="preserve"
       id="flowRoot4604"
       style="font-style:normal;font-weight:normal;font-size:40px;line-height:1.25;font-family:sans-serif;letter-spacing:0px;word-spacing:0px;fill:#000000;fill-opacity:1;stroke:none"
       transform="matrix(0.26458333,0,0,0.26458333,0,217.62498)"><flowRegion
         id="flowRegion4606"><rect
           id="rect4608"
           width="510.14288"
           height="202.64961"
           x="313.42856"
           y="53.064678" /></flowRegion><flowPara
         id="flowPara4610" /></flowRoot>    <g
       aria-label="Faltro"
       style="font-style:normal;font-weight:normal;font-size:10.58333302px;line-height:1.25;font-family:sans-serif;letter-spacing:0px;word-spacing:0px;fill:#ccc;fill-opacity:1;stroke:none;stroke-width:0.26458332"
       id="text4618">
      <path
         d="m 100.91208,244.82414 v -6.096 H 74.877084 v 44.5135 h 5.969 v -18.8595 h 16.129 v -5.6515 h -16.129 v -13.9065 z"
         style="font-style:normal;font-variant:normal;font-weight:normal;font-stretch:normal;font-size:63.5px;font-family:'Ikaros Sans';-inkscape-font-specification:'Ikaros Sans, Normal';font-variant-ligatures:normal;font-variant-caps:normal;font-variant-numeric:normal;font-feature-settings:normal;text-align:start;writing-mode:lr-tb;text-anchor:start;stroke-width:0.26458332"
         id="path915" />
      <path
         d="m 126.34787,251.42814 v 3.8735 c -2.6035,-2.2225 -5.9055,-3.556 -9.652,-3.556 -8.382,0 -15.24,7.0485 -15.24,15.6845 0,8.8265 6.858,15.8115 15.24,15.8115 3.7465,0 7.0485,-1.3335 9.652,-3.556 v 3.556 h 5.7785 v -31.8135 z m -9.652,26.035 c -5.334,0 -9.7155,-4.5085 -9.7155,-10.033 0,-5.3975 4.3815,-9.906 9.7155,-9.906 4.8895,0 8.9535,3.7465 9.652,8.636 v 2.667 c -0.6985,4.8895 -4.7625,8.636 -9.652,8.636 z"
         style="font-style:normal;font-variant:normal;font-weight:normal;font-stretch:normal;font-size:63.5px;font-family:'Ikaros Sans';-inkscape-font-specification:'Ikaros Sans, Normal';font-variant-ligatures:normal;font-variant-caps:normal;font-variant-numeric:normal;font-feature-settings:normal;text-align:start;writing-mode:lr-tb;text-anchor:start;stroke-width:0.26458332"
         id="path917" />
      <path
         d="m 142.58006,235.68014 h -5.842 v 47.5615 h 5.842 z"
         style="font-style:normal;font-variant:normal;font-weight:normal;font-stretch:normal;font-size:63.5px;font-family:'Ikaros Sans';-inkscape-font-specification:'Ikaros Sans, Normal';font-variant-ligatures:normal;font-variant-caps:normal;font-variant-numeric:normal;font-feature-settings:normal;text-align:start;writing-mode:lr-tb;text-anchor:start;stroke-width:0.26458332"
         id="path919" />
      <path
         d="m 161.49213,251.42814 v -15.8115 h -5.9055 v 15.8115 h -8.636 v 6.0325 h 8.636 v 25.781 h 5.9055 v -25.781 h 8.3185 v -6.0325 z"
         style="font-style:normal;font-variant:normal;font-weight:normal;font-stretch:normal;font-size:63.5px;font-family:'Ikaros Sans';-inkscape-font-specification:'Ikaros Sans, Normal';font-variant-ligatures:normal;font-variant-caps:normal;font-variant-numeric:normal;font-feature-settings:normal;text-align:start;writing-mode:lr-tb;text-anchor:start;stroke-width:0.26458332"
         id="path921" />
      <path
         d="m 179.77512,251.42814 h -5.715 v 31.8135 h 5.715 v -15.9385 c 0.508,-5.3975 4.318,-9.9695 9.8425,-9.9695 v -5.588 c -3.81,0 -7.112,1.397 -9.8425,3.6195 z"
         style="font-style:normal;font-variant:normal;font-weight:normal;font-stretch:normal;font-size:63.5px;font-family:'Ikaros Sans';-inkscape-font-specification:'Ikaros Sans, Normal';font-variant-ligatures:normal;font-variant-caps:normal;font-variant-numeric:normal;font-feature-settings:normal;text-align:start;writing-mode:lr-tb;text-anchor:start;stroke-width:0.26458332"
         id="path923" />
      <path
         d="m 206.12863,251.55514 c -8.509,0 -15.4305,7.0485 -15.4305,15.8115 0,8.8265 6.9215,15.8115 15.4305,15.8115 8.4455,0 15.367,-6.985 15.367,-15.8115 0,-8.763 -6.9215,-15.8115 -15.367,-15.8115 z m 0,25.8445 c -5.461,0 -9.8425,-4.5085 -9.8425,-10.033 0,-5.5245 4.3815,-10.033 9.8425,-10.033 5.3975,0 9.779,4.5085 9.779,10.033 0,5.5245 -4.3815,10.033 -9.779,10.033 z"
         style="font-style:normal;font-variant:normal;font-weight:normal;font-stretch:normal;font-size:63.5px;font-family:'Ikaros Sans';-inkscape-font-specification:'Ikaros Sans, Normal';font-variant-ligatures:normal;font-variant-caps:normal;font-variant-numeric:normal;font-feature-settings:normal;text-align:start;writing-mode:lr-tb;text-anchor:start;stroke-width:0.26458332"
         id="path925" />
    </g>
  </g>
</svg>
